<?xml version="1.0" encoding="UTF-8"?>
<svg version="1.1" xmlns="http://www.w3.org/2000/svg" width="1080" height="1080">
<path d="M0 0 C2.25477812 1.97269473 4.47795387 3.97685872 6.6875 6 C7.63109375 6.85980469 8.5746875 7.71960938 9.546875 8.60546875 C39.23286121 36.96159141 60.00507609 79.70356265 61.86450195 120.92382812 C61.89059878 122.29287241 61.91079411 123.66203903 61.92578125 125.03125 C61.93552979 125.77646912 61.94527832 126.52168823 61.95532227 127.28948975 C62.13447636 144.54964291 61.71598122 161.11572813 57.6875 178 C57.51089844 178.76038574 57.33429688 179.52077148 57.15234375 180.30419922 C49.67715532 211.3746815 32.70260632 239.1872449 10.6875 262 C9.41519531 263.36705078 9.41519531 263.36705078 8.1171875 264.76171875 C-4.42518488 277.88440985 -21.32759735 292.90347751 -40.25 293.375 C-51.03326954 293.08543852 -59.18193554 290.24384183 -67.3125 283 C-74.63353188 274.92209453 -78.00795399 265.42526959 -77.59375 254.53515625 C-76.24969343 242.41997963 -71.14349389 233.86705148 -61.94140625 226.03515625 C-58.93841208 223.71040148 -55.83131878 221.56449129 -52.6875 219.4375 C-31.67951763 205.17630044 -18.11308717 180.63321134 -13.28125 156.0234375 C-8.36728092 128.51006262 -13.72658398 99.91170423 -29.4453125 76.578125 C-46.28135277 53.33170956 -69.65156978 37.53325923 -98.03125 32.31640625 C-125.21437611 28.24455368 -153.43564631 33.33953602 -176.3125 49 C-180.89221485 52.39836211 -185.12296571 56.13684586 -189.3125 60 C-189.97507812 60.58136719 -190.63765625 61.16273438 -191.3203125 61.76171875 C-208.28320019 77.42280343 -220.37321329 103.70686205 -221.43359375 126.61621094 C-222.67515159 163.97468645 -208.93668129 189.80342005 -184.92480469 217.15380859 C-178.3348926 224.69967704 -171.94879547 232.41826556 -165.625 240.1875 C-163.05103406 243.31799912 -160.43670534 246.4116341 -157.8125 249.5 C-153.76237401 254.2691121 -149.76897887 259.07912432 -145.81640625 263.9296875 C-142.69907026 267.75219309 -139.5705706 271.56538487 -136.4375 275.375 C-135.83534668 276.10726807 -135.23319336 276.83953613 -134.61279297 277.59399414 C-130.9885852 281.99216706 -127.32585033 286.35375063 -123.625 290.6875 C-119.9456625 294.99788667 -116.40866001 299.39558039 -112.9375 303.875 C-108.46235882 309.64731864 -103.75427867 315.17757334 -98.94238281 320.67089844 C-95.28668441 324.85102459 -91.77176017 329.11292274 -88.3359375 333.4765625 C-85.88448577 336.53377837 -83.35346531 339.51712768 -80.8125 342.5 C-76.88057935 347.11946962 -73.03685994 351.79450577 -69.265625 356.546875 C-65.66343697 361.07122317 -61.98736529 365.53464644 -58.3125 370 C-57.87019043 370.54076172 -57.42788086 371.08152344 -56.97216797 371.63867188 C-55.60988068 373.3036362 -54.24293869 374.96467747 -52.875 376.625 C-52.05128906 377.62789063 -51.22757813 378.63078125 -50.37890625 379.6640625 C-48.53048998 382.04667619 -48.53048998 382.04667619 -46.3125 383 C-46.07789063 381.75605469 -45.84328125 380.51210938 -45.6015625 379.23046875 C-44.28202904 373.31798825 -42.04309411 367.87874059 -39.6875 362.3125 C-39.24019531 361.2517627 -38.79289062 360.19102539 -38.33203125 359.09814453 C-19.37190741 314.90512085 17.9144236 279.728316 62.39306641 261.87890625 C107.06437317 244.7671054 156.80297461 246.17875876 200.67578125 265.1015625 C225.23524087 276.13938331 248.80398688 292.81744419 265.6875 314 C266.43 314.90492188 267.1725 315.80984375 267.9375 316.7421875 C298.07898597 354.14228425 311.64577522 401.25573124 306.80810547 448.9453125 C301.25568831 495.47650417 276.23462981 540.07598954 239.37695312 569.13012695 C231.78313653 574.96520614 224.02010531 580.26602594 215.6875 585 C214.56601562 585.65355469 213.44453125 586.30710937 212.2890625 586.98046875 C195.22371483 596.68314338 176.91614854 602.41213602 157.6875 606 C156.40488281 606.24621094 155.12226562 606.49242187 153.80078125 606.74609375 C108.31915369 613.87564618 60.53720882 602.56829651 23.1796875 575.83203125 C7.41840104 564.19961525 -6.0212605 550.94080948 -18.00952148 535.46240234 C-21.8688915 530.49949267 -25.92126438 525.72846013 -30.03564453 520.97631836 C-33.58987933 516.8645224 -37.02490606 512.67609604 -40.3984375 508.4140625 C-46.21758374 501.07481276 -52.22918408 493.90058365 -58.29614258 486.76635742 C-61.68577712 482.76937629 -64.9674176 478.69716941 -68.22265625 474.58984375 C-71.14470315 470.96869031 -74.16071486 467.43045431 -77.17578125 463.88671875 C-80.843656 459.57037996 -84.43376321 455.1952084 -88.0078125 450.80078125 C-90.53283075 447.73224213 -93.10734769 444.70960188 -95.6875 441.6875 C-99.47042492 437.25148397 -103.11782737 432.73399357 -106.6875 428.125 C-111.14301671 422.37972845 -115.82393405 416.86904559 -120.61230469 411.39941406 C-124.52881957 406.92239615 -128.32577067 402.36457063 -132.0703125 397.7421875 C-134.61503683 394.62999852 -137.20868225 391.56273503 -139.8125 388.5 C-143.93363948 383.65051278 -147.98241612 378.74838877 -152 373.8125 C-154.57396392 370.68200334 -157.18819086 367.58827539 -159.8125 364.5 C-163.93233299 359.65179875 -167.98045964 354.75154155 -171.99609375 349.81640625 C-174.59037266 346.66214808 -177.22856265 343.5479702 -179.875 340.4375 C-183.74373672 335.88854584 -187.5102835 331.27492902 -191.21875 326.59375 C-193.70061347 323.51920272 -196.25108593 320.50829908 -198.8125 317.5 C-202.63342614 313.00997457 -206.3662239 308.46649037 -210.03125 303.84765625 C-217.69545997 294.28051743 -225.54813083 284.86367264 -233.48632812 275.52319336 C-236.97554242 271.41283211 -240.40231199 267.25585992 -243.80078125 263.0703125 C-245.74192249 260.69747111 -247.69812948 258.34103242 -249.66796875 255.9921875 C-283.19874891 215.90675673 -298.94033161 170.28389738 -295.08544922 117.91552734 C-294.50955018 112.20021188 -293.54625985 106.60777854 -292.3125 101 C-292.14621094 100.23010742 -291.97992188 99.46021484 -291.80859375 98.66699219 C-284.47869946 65.83178056 -268.89234873 37.73731527 -246.3125 13 C-245.56613281 12.18144531 -244.81976563 11.36289063 -244.05078125 10.51953125 C-237.74945544 3.93866419 -230.57885026 -1.5399127 -223.3125 -7 C-222.46816406 -7.639375 -221.62382812 -8.27875 -220.75390625 -8.9375 C-155.23486939 -56.66806311 -61.4094349 -52.35926798 0 0 Z M99.6875 327 C98.56085938 327.32871094 97.43421875 327.65742188 96.2734375 327.99609375 C81.99593071 332.65320375 68.69675297 339.74612643 57.6875 350 C57.1723584 350.46889648 56.6572168 350.93779297 56.12646484 351.42089844 C34.1000856 371.61120157 23.82074947 397.27824342 21.46484375 426.7890625 C20.57203843 451.86524665 30.17740286 478.29691083 46.6875 497 C47.39777344 497.84175781 48.10804688 498.68351563 48.83984375 499.55078125 C66.41307369 519.90360819 92.34666777 532.60389499 119.08984375 534.8359375 C145.88824992 536.52846842 173.53394364 528.84298562 194.1953125 511.27734375 C214.80664354 492.44285159 230.82264951 468.62572453 232.90844727 439.96386719 C234.06282632 407.70007556 225.80852389 380.45355843 204.09375 356.08984375 C186.09173666 337.26715039 160.75352698 324.48078154 134.453125 323.69921875 C132.28133216 323.67992785 130.10935021 323.67641257 127.9375 323.6875 C126.22288574 323.69487183 126.22288574 323.69487183 124.47363281 323.70239258 C115.85778493 323.82154792 107.99360729 324.56341033 99.6875 327 Z " fill="#F1EAE4" transform="translate(661.3125,128)"/>
<path d="M0 0 C0.79375031 0.00215515 1.58750061 0.0043103 2.40530396 0.00653076 C14.26081686 0.05815237 25.75616047 0.42915122 37.3125 3.3125 C38.1576416 3.52181152 39.0027832 3.73112305 39.87353516 3.94677734 C51.36262469 6.8734194 62.4825048 10.46254563 73.3125 15.3125 C73.93898438 15.59287109 74.56546875 15.87324219 75.2109375 16.16210938 C117.83459052 35.54816843 152.80089428 73.43841964 169.5625 117.125 C185.21418142 159.83035616 183.96413907 207.81501141 165.3125 249.3125 C159.15316134 262.4500869 152.35815765 274.94488613 143.3125 286.3125 C142.89178223 286.84456055 142.47106445 287.37662109 142.03759766 287.92480469 C112.27428198 325.26037317 70.67097475 349.85728903 23.25 356.625 C-24.80290562 361.91802141 -72.56877344 349.20386584 -110.6875 319.3125 C-114.13495264 316.42166732 -117.41847355 313.40124925 -120.6875 310.3125 C-122.03758458 309.16185973 -123.39161589 308.0158304 -124.75 306.875 C-139.52917266 293.86226232 -150.73450232 276.71163727 -159.6875 259.3125 C-159.99880859 258.71969238 -160.31011719 258.12688477 -160.63085938 257.51611328 C-171.7196309 236.18382308 -177.9479202 211.33276552 -178.6875 187.3125 C-178.72746094 186.05050781 -178.76742187 184.78851562 -178.80859375 183.48828125 C-179.64274697 143.27455578 -166.68552348 102.98215413 -141.6875 71.3125 C-140.91535156 70.33152344 -140.14320313 69.35054688 -139.34765625 68.33984375 C-137.16604742 65.62868201 -134.94368703 62.9617795 -132.6875 60.3125 C-132.00816406 59.50941406 -131.32882813 58.70632813 -130.62890625 57.87890625 C-126.31299808 52.88995197 -121.74719247 48.53332548 -116.6875 44.3125 C-115.81480469 43.55195313 -114.94210938 42.79140625 -114.04296875 42.0078125 C-82.12072544 14.57263151 -42.04962443 -0.20582077 0 0 Z M-71.6875 100.3125 C-72.43257812 100.95574219 -73.17765625 101.59898437 -73.9453125 102.26171875 C-93.2369957 120.26468627 -104.9382898 147.40795988 -105.890625 173.65234375 C-106.37317023 201.85375302 -97.98183945 228.27825233 -78.6875 249.3125 C-78.25099121 249.7967041 -77.81448242 250.2809082 -77.36474609 250.77978516 C-60.1212864 269.72630259 -35.39814556 282.64222294 -9.65673828 284.53540039 C19.45068162 285.59739688 47.01538856 278.91858075 69.3125 259.3125 C70.08078125 258.67570313 70.8490625 258.03890625 71.640625 257.3828125 C88.18833721 243.36791338 98.93212291 223.10972683 104.3125 202.3125 C104.6528125 201.00539063 104.6528125 201.00539063 105 199.671875 C110.96867582 171.32066485 103.85208576 142.26342117 88.3125 118.3125 C85.50486322 114.45390334 82.51010753 110.85289963 79.3125 107.3125 C78.55324219 106.47074219 77.79398438 105.62898438 77.01171875 104.76171875 C57.9008357 84.64993838 32.04933331 73.68146258 4.51953125 72.09375 C-24.22234598 71.41279733 -50.08648301 81.6009697 -71.6875 100.3125 Z " fill="#F1EAE4" transform="translate(289.6875,378.6875)"/>
<path d="M0 0 C23.780625 -0.04125 47.56125 -0.0825 72.0625 -0.125 C83.29099976 -0.15231201 83.29099976 -0.15231201 94.74633789 -0.18017578 C103.94616699 -0.18920898 103.94616699 -0.18920898 108.26438904 -0.19088745 C111.25542723 -0.19273724 114.24639313 -0.20017777 117.2374115 -0.21115112 C121.07068151 -0.22502488 124.9038487 -0.22895398 128.73714149 -0.22614455 C130.78344671 -0.22700402 132.82974096 -0.2376493 134.87601566 -0.2488575 C157.19929735 -0.19952117 177.97379141 4.35392254 194.5625 20.33984375 C208.51462669 35.56644355 211.78051866 54.9750156 211.3046875 74.93359375 C210.50111447 92.43621128 204.0273268 108.39624721 191.1640625 120.48046875 C185.64251177 125.09252428 179.29113186 128.56152712 173 132 C179.5951944 140.19712792 186.43382397 148.15617731 193.34033203 156.09033203 C200.29583526 164.09356037 207.16234983 172.1513653 213.828125 180.3984375 C216.80272841 183.96154159 219.95929626 187.34331422 223.15234375 190.7109375 C225.06339156 193.07853585 225.93895386 195.17269129 227 198 C220.16879053 198.22902648 213.33857699 198.3861424 206.50439453 198.49438477 C204.18207813 198.53952384 201.86001582 198.60085326 199.53857422 198.67895508 C196.19174495 198.78869894 192.84830594 198.83928939 189.5 198.87890625 C188.4694751 198.92535782 187.4389502 198.97180939 186.37719727 199.01966858 C181.92009429 199.02275896 179.1223583 198.91503021 175.59089661 196.03591919 C173.56496548 193.77369973 171.7602649 191.47212634 170 189 C169.22011719 188.06671875 168.44023437 187.1334375 167.63671875 186.171875 C166.67185547 184.97304688 166.67185547 184.97304688 165.6875 183.75 C162.3214454 179.60046717 158.90083819 175.50556694 155.4375 171.4375 C152.2324822 167.66922276 149.07311801 163.87753336 146 160 C142.81464632 155.98540136 139.55375697 152.04218665 136.25 148.125 C135.78980469 147.57714844 135.32960938 147.02929688 134.85546875 146.46484375 C133.58464362 144.96430679 132.29287218 143.48158334 131 142 C130.42811951 141.29180115 129.85623901 140.58360229 129.26702881 139.85394287 C126.17627987 137.32637377 124.17574474 137.48303463 120.21191406 137.45410156 C119.53833359 137.44376389 118.86475311 137.43342621 118.17076111 137.42277527 C115.95213803 137.39335994 113.7344277 137.39184849 111.515625 137.390625 C109.9743272 137.37564234 108.43304546 137.35891501 106.89178467 137.34051514 C102.84103659 137.2968383 98.79050507 137.27684202 94.73956299 137.26177979 C89.8760322 137.23876717 85.01274026 137.18633721 80.1493988 137.13883972 C72.76620351 137.07002521 65.38369413 137.03857729 58 137 C58 125.45 58 113.9 58 102 C61.8511145 101.98598145 61.8511145 101.98598145 65.7800293 101.97167969 C74.30570147 101.93776518 82.83113527 101.88213661 91.35661602 101.81609726 C96.52071507 101.77675148 101.68464689 101.74450009 106.84887695 101.72900391 C111.84172712 101.71375192 116.83411712 101.67915655 121.82676125 101.63169098 C123.72228791 101.61696473 125.6178803 101.60896407 127.51346397 101.60811615 C141.33691998 101.59572505 154.68528831 101.53600139 165.19140625 91.22265625 C172.14158352 82.68129369 172.789513 72.61331046 172 62 C170.24053841 53.63725786 166.25542657 46.46568484 159.015625 41.69140625 C151.21908971 37.56649514 143.98521873 36.70029345 135.29125977 36.68115234 C133.68422007 36.66592246 133.68422007 36.66592246 132.04471493 36.6503849 C128.59361524 36.61986901 125.14259755 36.60262688 121.69140625 36.5859375 C119.55398862 36.5689936 117.41657774 36.55117592 115.2791748 36.5324707 C107.37369389 36.46939769 99.4680855 36.42321524 91.5625 36.375 C73.886875 36.25125 56.21125 36.1275 38 36 C38 89.46 38 142.92 38 198 C25.46 198 12.92 198 0 198 C0 132.66 0 67.32 0 0 Z " fill="#F1EAE4" transform="translate(330,792)"/>
<path d="M0 0 C1.56047445 0.00015913 3.12095416 0.00585397 4.68139648 0.01586914 C5.91115456 0.01799156 5.91115456 0.01799156 7.16575623 0.02015686 C9.79470406 0.0257725 12.42356797 0.0383276 15.05249023 0.05102539 C16.8304838 0.05603838 18.60847869 0.06060163 20.38647461 0.06469727 C24.75434569 0.07574701 29.12215371 0.09302208 33.48999023 0.11352539 C33.49237859 0.71814637 33.49476694 1.32276735 33.49722767 1.94571018 C33.55660862 16.72208784 33.63230399 31.49831611 33.72570515 46.2745142 C33.77048996 53.42046182 33.80994343 60.56636152 33.83642578 67.71240234 C33.8595473 73.94777477 33.89310005 80.18299332 33.93869179 86.41824335 C33.96243549 89.7135497 33.97972918 93.00867604 33.98760414 96.3040638 C33.58870254 125.13153022 33.58870254 125.13153022 46.48999023 150.11352539 C56.69481074 158.06898513 67.82019101 161.51931224 80.48999023 163.11352539 C81.34979492 163.22567383 82.20959961 163.33782227 83.09545898 163.45336914 C104.14938253 165.7785377 131.70872636 165.69931757 149.46264648 152.79321289 C159.45469264 144.514639 163.59913909 133.7212096 165.48999023 121.11352539 C165.7720263 117.03124215 165.80077077 112.9618955 165.80883789 108.87084961 C165.81888351 107.68920731 165.82892914 106.507565 165.83927917 105.29011536 C165.86996836 101.41615245 165.8871067 97.54225819 165.90405273 93.66821289 C165.92170469 90.96964058 165.94225567 88.2710924 165.96273804 85.57254028 C166.00933836 79.21574022 166.04617253 72.85892343 166.07941091 66.50204098 C166.11776562 59.25884563 166.16714033 52.01573814 166.21739507 44.7726171 C166.32043576 29.88631243 166.40833157 14.99996559 166.48999023 0.11352539 C179.02999023 0.11352539 191.56999023 0.11352539 204.48999023 0.11352539 C204.53533429 15.46597509 204.57209332 30.81839105 204.59361458 46.17088985 C204.60387787 53.30112563 204.61784217 60.43131651 204.64086914 67.56152344 C204.66095603 73.78437142 204.67374249 80.00718685 204.67816722 86.23006636 C204.68074904 89.51762488 204.68780092 92.80506993 204.70145035 96.09260368 C204.81368518 124.26817135 204.3807283 154.68830537 183.54711914 176.23046875 C160.38754197 199.16314734 127.33639564 202.3568672 96.33740234 202.36450195 C67.41973467 202.20365414 38.24535303 197.44507825 16.32202148 177.10180664 C-5.55235983 154.21198016 -4.82869941 122.73380357 -4.74047852 93.14086914 C-4.73928409 90.47855856 -4.73878345 87.81625591 -4.73908997 85.15394592 C-4.73816153 79.61627799 -4.72957815 74.07866579 -4.71582031 68.54101562 C-4.69997088 62.13773023 -4.69482716 55.73450508 -4.69555587 49.33120149 C-4.69616481 43.14390827 -4.69096988 36.95663779 -4.68276405 30.76935005 C-4.6795758 28.14376506 -4.67760961 25.5181783 -4.67687035 22.89259148 C-4.67471644 19.24737341 -4.66599712 15.60223282 -4.65527344 11.95703125 C-4.65572662 10.86681671 -4.65617981 9.77660217 -4.65664673 8.65335083 C-4.65238174 7.66829056 -4.64811676 6.68323029 -4.64372253 5.6683197 C-4.64204669 4.80769897 -4.64037085 3.94707823 -4.63864422 3.06037807 C-4.4093649 -0.40971136 -3.60299055 0.1165327 0 0 Z " fill="#F1EAE4" transform="translate(581.510009765625,791.886474609375)"/>
<path d="M0 0 C1.72813431 -0.00021904 1.72813431 -0.00021904 3.49118042 -0.0004425 C7.278645 0.00025114 11.06605969 0.00801784 14.85351562 0.01586914 C17.48767063 0.01773527 20.12182597 0.01915825 22.75598145 0.02015686 C28.9676842 0.02325592 35.1793692 0.03144997 41.39106417 0.04150635 C48.46729154 0.05271191 55.54351979 0.0581891 62.61975384 0.06320179 C77.16643486 0.07363387 91.71309671 0.0919615 106.25976562 0.11352539 C106.25976562 11.99352539 106.25976562 23.87352539 106.25976562 36.11352539 C102.94026855 36.12810791 99.62077148 36.14269043 96.20068359 36.15771484 C85.19242237 36.20821255 74.18430034 36.27483407 63.17617607 36.3492403 C56.5066156 36.39383201 49.83714318 36.43311259 43.16748047 36.45996094 C36.72233962 36.4861058 30.27742917 36.52658682 23.83243179 36.57671165 C21.38229377 36.59330497 18.93211596 36.60486588 16.48192978 36.6111393 C-5.37915335 36.67273839 -24.96535592 37.6955286 -41.56054688 53.80102539 C-47.96462167 60.59531263 -52.44978201 67.33898575 -55.74023438 76.11352539 C-56.06121094 76.96946289 -56.3821875 77.82540039 -56.71289062 78.70727539 C-61.90493534 95.51501083 -59.91149689 115.47048833 -51.92773438 130.98852539 C-50.89832985 132.71700314 -49.83654477 134.42669032 -48.74023438 136.11352539 C-47.97066406 137.29881836 -47.97066406 137.29881836 -47.18554688 138.50805664 C-37.87065863 151.58901214 -23.10635107 158.14299268 -7.74023438 161.11352539 C-3.82617974 161.49481926 0.04859432 161.54170619 3.97924805 161.5300293 C5.08154755 161.53861465 6.18384705 161.54720001 7.31954956 161.55604553 C10.91817819 161.58089264 14.51652819 161.5854637 18.11523438 161.59008789 C20.62918427 161.60441122 23.14312636 161.62017062 25.65705872 161.63729858 C31.5699238 161.67472879 37.48273263 161.69996327 43.39568549 161.71842325 C54.64241383 161.75402131 65.88899608 161.81751441 77.13558388 161.88328171 C80.83226614 161.90241723 84.52891626 161.91410943 88.22563171 161.92471313 C90.47162957 161.93491685 92.71762673 161.94527405 94.96362305 161.95581055 C95.99780869 161.95685287 97.03199432 161.9578952 98.09751892 161.95896912 C99.03235107 161.96442245 99.96718323 161.96987579 100.93034363 161.97549438 C101.74713687 161.97805048 102.56393011 161.98060658 103.40547466 161.98324013 C105.25976562 162.11352539 105.25976562 162.11352539 106.25976562 163.11352539 C106.34828092 165.70711861 106.37502507 168.2739223 106.35742188 170.86743164 C106.35529945 172.03060158 106.35529945 172.03060158 106.35313416 173.2172699 C106.34751908 175.70356033 106.33496409 178.18976199 106.32226562 180.67602539 C106.31725256 182.35766472 106.31268932 184.03930545 106.30859375 185.72094727 C106.29754476 189.85184105 106.28027007 193.98266815 106.25976562 198.11352539 C90.89007725 198.18392968 75.5204011 198.23666625 60.15058899 198.26896191 C53.01244686 198.28436284 45.87440551 198.30532091 38.73632812 198.33984375 C32.50726337 198.36995558 26.27827169 198.38914946 20.04913616 198.39579087 C16.75763971 198.39966672 13.46639819 198.41025955 10.17495728 198.43071556 C-22.22833894 198.62394411 -48.3512139 192.83897072 -72.42773438 169.73852539 C-91.30756267 150.22936949 -99.23305356 123.15076199 -98.88867188 96.46118164 C-97.64533321 68.42062283 -88.13287413 43.28434907 -67.58007812 23.55493164 C-48.30642285 6.98542058 -25.20453172 -0.08432453 0 0 Z " fill="#F1EAE4" transform="translate(911.740234375,791.886474609375)"/>
<path d="M0 0 C1.60163933 -0.03164012 3.20304436 -0.07939742 4.80371094 -0.14355469 C17.93321179 -0.66244839 17.93321179 -0.66244839 21.546875 1.89404297 C22.91825794 4.03391417 23.72263811 6.12862309 24.59741211 8.51489258 C25.64440888 10.46567051 26.71558744 12.4035723 27.80444336 14.33129883 C29.00983558 16.57808547 30.21145084 18.82690125 31.40991211 21.07739258 C31.73011322 21.676716 32.05031433 22.27603943 32.38021851 22.89352417 C38.69019274 34.70526708 44.83730508 46.5995819 50.96006775 58.50914001 C51.28511795 59.14138992 51.61016815 59.77363983 51.94506836 60.42504883 C52.26395523 61.04533463 52.5828421 61.66562042 52.91139221 62.30470276 C55.90998888 68.13231355 58.95578015 73.9341766 62.01708984 79.72900391 C65.1877566 85.73116834 68.334125 91.74573634 71.47241211 97.76489258 C71.97401855 98.72685547 72.475625 99.68881836 72.99243164 100.67993164 C75.04152856 104.61037083 77.08996254 108.54115537 79.13842773 112.47192383 C84.67559057 123.09595926 90.22166807 133.71491214 95.80883789 144.31274414 C99.59903157 151.5067159 103.35912969 158.7162665 107.11450195 165.9284668 C109.56622798 170.63403237 112.02670474 175.33449183 114.51147461 180.02270508 C114.9690918 180.88702148 115.42670898 181.75133789 115.89819336 182.6418457 C116.75539 184.25888775 117.61463251 185.87484763 118.47631836 187.48950195 C118.85916992 188.21202148 119.24202148 188.93454102 119.63647461 189.67895508 C119.96856934 190.30237793 120.30066406 190.92580078 120.64282227 191.56811523 C121.75067247 193.82744965 122.66287006 196.17853746 123.59741211 198.51489258 C109.40741211 198.51489258 95.21741211 198.51489258 80.59741211 198.51489258 C75.16123679 188.85058089 69.82166035 179.24937556 64.78491211 169.38989258 C60.53257816 161.12369473 56.21488449 152.90361835 51.72241211 144.76489258 C46.48397055 135.26540333 41.50918983 125.64164059 36.55895996 115.99023438 C32.2991826 107.68977402 27.97732778 99.43596169 23.47241211 91.26489258 C19.15595332 83.42954904 14.94221228 75.54422652 10.80938721 67.61071777 C10.17192685 66.3875672 9.53306787 65.16514443 8.89276123 63.94348145 C8.00358981 62.24555266 7.12066599 60.54435653 6.23803711 58.84301758 C5.72789062 57.86236328 5.21774414 56.88170898 4.69213867 55.87133789 C3.59741211 53.51489258 3.59741211 53.51489258 3.59741211 51.51489258 C2.93741211 51.51489258 2.27741211 51.51489258 1.59741211 51.51489258 C1.22398682 52.51081421 1.22398682 52.51081421 0.84301758 53.52685547 C-0.69989832 57.22809963 -2.49856067 60.75934103 -4.33227539 64.32348633 C-4.71845032 65.07769363 -5.10462524 65.83190094 -5.50250244 66.60896301 C-6.75810619 69.05820007 -8.01754542 71.50543644 -9.27758789 73.95239258 C-9.70875916 74.79145142 -10.13993042 75.63051025 -10.58416748 76.49499512 C-15.89276594 86.82122887 -21.27623815 97.09240523 -26.90405273 107.24902344 C-31.40667413 115.41770937 -35.65218404 123.71325529 -39.90258789 132.01489258 C-45.13258374 142.22900338 -50.44010664 152.38146979 -55.99169922 162.42578125 C-60.81244962 171.17887589 -65.38706944 180.05780578 -69.94824219 188.94799805 C-70.51454346 190.04901855 -71.08084473 191.15003906 -71.66430664 192.28442383 C-72.16921631 193.27031494 -72.67412598 194.25620605 -73.19433594 195.27197266 C-74.40258789 197.51489258 -74.40258789 197.51489258 -75.40258789 198.51489258 C-76.75353771 198.60758257 -78.1092588 198.63236584 -79.46337891 198.62841797 C-80.32419571 198.62834244 -81.18501251 198.62826691 -82.07191467 198.62818909 C-83.0073259 198.6230278 -83.94273712 198.61786652 -84.90649414 198.61254883 C-85.85950912 198.61113388 -86.81252411 198.60971893 -87.79441833 198.60826111 C-90.85133954 198.6026441 -93.90818866 198.59008874 -96.96508789 198.57739258 C-99.03214413 198.57237977 -101.09920151 198.56781648 -103.16625977 198.5637207 C-108.24506377 198.55266914 -113.32381359 198.53539313 -118.40258789 198.51489258 C-117.20651005 194.71677867 -115.86627166 191.22456088 -114.00415039 187.70629883 C-113.53106445 186.8065332 -113.05797852 185.90676758 -112.57055664 184.97973633 C-112.06137695 184.02196289 -111.55219727 183.06418945 -111.02758789 182.07739258 C-109.93632375 180.00584031 -108.84518128 177.93422395 -107.75415039 175.86254883 C-107.19630859 174.80696777 -106.6384668 173.75138672 -106.0637207 172.66381836 C-103.49261401 167.78990094 -100.94821811 162.90214926 -98.40258789 158.01489258 C-97.40532564 156.10336455 -96.40792931 154.19190646 -95.41040039 152.28051758 C-93.38342319 148.39558798 -91.35749342 144.5101145 -89.33227539 140.62426758 C-84.35130191 131.06906041 -79.35845681 121.52063312 -74.32739258 111.99169922 C-71.89369828 107.3735386 -69.48373406 102.74379201 -67.09008789 98.10473633 C-61.7336721 87.72459216 -56.36675942 77.36287069 -50.71508789 67.13989258 C-44.33070232 55.57638768 -38.34093496 43.81175186 -32.33935547 32.04663086 C-30.03572613 27.53159567 -27.72298462 23.0213327 -25.40258789 18.51489258 C-24.99022888 17.71263245 -24.57786987 16.91037231 -24.15301514 16.08380127 C-22.92381154 13.69925665 -21.68604807 11.31936224 -20.44555664 8.94067383 C-20.06901443 8.20842087 -19.69247223 7.47616791 -19.30451965 6.72172546 C-14.98169767 -1.51530832 -8.42346365 0.12847744 0 0 Z " fill="#F1EAE4" transform="translate(180.402587890625,791.485107421875)"/>
<path d="M0 0 C7.66876077 6.08317207 13.10056362 15.01268628 14.75 24.703125 C16.11811766 37.27270601 13.7545447 48.57052338 5.98046875 58.78125 C-1.23423096 66.8639905 -10.80851641 72.53968468 -21.72265625 73.23828125 C-35.89068247 73.60466752 -46.17768295 70.73317013 -57 61 C-64.56056796 52.29436677 -68.32146044 41.47474013 -68 30 C-66.7680744 18.41989936 -62.71927179 9.15591879 -54.1875 1.125 C-37.91597633 -11.97389067 -16.84167909 -12.38961783 0 0 Z " fill="#CBA88E" transform="translate(571,232)"/>
<path d="M0 0 C5.35049819 4.1614986 8.83032252 8.85296166 10.6875 15.4375 C11.61701791 23.0595469 10.6198174 29.19942661 7 36 C1.96751731 42.24191845 -4.02500179 45.97327867 -12 47 C-20.06481964 47.24780172 -26.89345626 45.72646122 -32.94140625 40.23828125 C-38.16744178 34.6849366 -41.04220558 29.23008339 -41.375 21.5625 C-41.06334898 13.70347428 -38.5397297 7.5397297 -33 2 C-22.96253667 -5.68826979 -10.96124368 -6.36760493 0 0 Z " fill="#CBA88E" transform="translate(198,930)"/>
</svg>
